<svg width="18" height="19" viewBox="0 0 18 19" fill="none" xmlns="http://www.w3.org/2000/svg">
<g clip-path="url(#clip0_9_147)">
<path d="M14.2388 19C14.1747 18.9906 14.11 18.9824 14.0459 18.9741C13.9047 18.9583 13.7646 18.9355 13.626 18.9059C12.4398 18.6307 11.5983 17.9625 11.1243 16.9178C10.8011 16.2162 10.7677 15.4272 11.0308 14.704C11.0573 14.6436 11.0586 14.5762 11.0344 14.515C11.0102 14.4538 10.9623 14.4034 10.9002 14.3737C9.16421 13.3714 7.73165 12.5419 6.39082 11.7625C6.34145 11.7316 6.28375 11.7145 6.22439 11.713C6.14641 11.7152 6.07249 11.7461 6.01856 11.7988C5.31816 12.4015 4.50308 12.707 3.59626 12.707C3.46335 12.707 3.32633 12.7004 3.1893 12.6878C1.58796 12.5359 0.264185 11.342 0.0360095 9.84814C-0.0918576 9.00755 0.129796 8.15309 0.655259 7.46097C1.17425 6.76545 1.96119 6.28541 2.85057 6.12179C3.1024 6.07528 3.35839 6.05132 3.61507 6.05024C4.51778 6.05024 5.33933 6.37113 6.05738 7.00467C6.11215 7.05855 6.18732 7.09017 6.26673 7.09273C6.32721 7.09086 6.38598 7.07354 6.43669 7.04265C7.83809 6.2605 9.29183 5.44917 10.8761 4.5685C10.9377 4.53999 10.9856 4.49103 11.0106 4.43117C11.0357 4.37131 11.0359 4.30488 11.0114 4.24485C10.8733 3.82897 10.8277 3.391 10.8774 2.95799C10.9272 2.52497 11.0713 2.1061 11.3007 1.72722C11.5394 1.32922 11.8615 0.980445 12.2478 0.701805C12.634 0.423165 13.0764 0.220404 13.5484 0.105683C13.8363 0.0352218 14.1328 -0.000296291 14.4305 1.86154e-06C16.1606 1.86154e-06 17.6755 1.19937 17.9543 2.79009C18.2707 4.59877 16.9675 6.31279 15.048 6.61111C14.8312 6.64626 14.6117 6.66467 14.3917 6.66616C13.4831 6.66616 12.6604 6.34636 11.947 5.71613C11.8915 5.66132 11.8153 5.62894 11.7347 5.62586C11.6755 5.62736 11.6179 5.64412 11.5683 5.6743C10.0663 6.51424 8.5826 7.34097 7.15768 8.13138C7.0857 8.16311 7.02928 8.21923 6.9998 8.2884C6.97033 8.35757 6.97 8.43463 6.9989 8.50401C7.20054 9.10604 7.19168 9.75259 6.97361 10.3496C6.92421 10.4894 6.96302 10.5973 7.09122 10.6694C8.32737 11.3838 9.56234 12.0994 10.7961 12.816L11.6518 13.3114C11.6857 13.3338 11.7265 13.3451 11.768 13.3436C11.8094 13.3421 11.8492 13.3279 11.8811 13.3031C12.0146 13.2162 12.1434 13.1237 12.2746 13.034C12.3999 12.9411 12.5333 12.8581 12.6733 12.7857C13.2075 12.4984 13.8126 12.3466 14.4287 12.3454C15.2059 12.3469 15.9615 12.5843 16.5824 13.0218C17.2032 13.4594 17.6557 14.0736 17.8719 14.7722C18.0054 15.2207 18.0369 15.6904 17.9643 16.151C17.8918 16.6116 17.7169 17.0529 17.4509 17.4463C17.1849 17.8397 16.8337 18.1765 16.42 18.4351C16.0064 18.6936 15.5393 18.868 15.0491 18.9472C14.9545 18.9615 14.8574 18.9741 14.7633 18.9862L14.6398 19.0022L14.2388 19ZM14.4199 13.6191C14.0594 13.6208 13.7049 13.7058 13.3878 13.8665C13.0708 14.0271 12.801 14.2585 12.6023 14.5401C12.4036 14.8217 12.2822 15.1448 12.2489 15.4808C12.2156 15.8168 12.2713 16.1553 12.4112 16.4663C12.551 16.7773 12.7707 17.0512 13.0507 17.2638C13.3307 17.4763 13.6624 17.621 14.0165 17.6848C14.3705 17.7487 14.7359 17.7298 15.0802 17.6299C15.4246 17.53 15.7373 17.3521 15.9907 17.1121C16.1937 16.9229 16.3545 16.6978 16.4637 16.45C16.5729 16.2021 16.6284 15.9364 16.627 15.6683C16.6234 15.1247 16.3906 14.6044 15.9793 14.2206C15.5679 13.8369 15.0113 13.6207 14.4305 13.6191H14.4199ZM3.56979 7.32886C2.99188 7.33197 2.43828 7.54695 2.02776 7.92768C1.61724 8.30841 1.3825 8.82457 1.3739 9.36542C1.36983 9.63202 1.42255 9.8967 1.52897 10.144C1.63539 10.3913 1.79339 10.6163 1.99373 10.8059C2.19676 11.0015 2.43926 11.1575 2.70719 11.2647C2.97511 11.372 3.26312 11.4283 3.5545 11.4306H3.57802C4.15917 11.4337 4.7178 11.2205 5.13105 10.8381C5.54429 10.4556 5.77829 9.93522 5.78157 9.39129C5.78484 8.84737 5.55713 8.3245 5.14851 7.93772C4.7399 7.55094 4.18386 7.33193 3.60272 7.32886H3.56979ZM14.4228 1.28579C13.8419 1.28805 13.2856 1.50623 12.8765 1.89234C12.4674 2.27845 12.2389 2.80086 12.2413 3.34464C12.2438 3.88842 12.4769 4.40902 12.8894 4.79193C13.3019 5.17484 13.8601 5.38869 14.4411 5.38643C15.0204 5.3831 15.575 5.16595 15.9843 4.78215C16.3935 4.39836 16.6245 3.87891 16.627 3.33666C16.6246 2.79236 16.3921 2.27106 15.9803 1.88675C15.5685 1.50243 15.0109 1.28636 14.4293 1.28579H14.4228Z" fill="white"/>
</g>
<defs>
<clipPath id="clip0_9_147">
<rect width="18" height="19" fill="white"/>
</clipPath>
</defs>
</svg>
